<mxfile host="Electron" modified="2024-03-25T21:29:30.574Z" agent="Mozilla/5.0 (Windows NT 10.0; Win64; x64) AppleWebKit/537.36 (KHTML, like Gecko) draw.io/24.1.0 Chrome/120.0.6099.109 Electron/28.1.0 Safari/537.36" etag="qyDfiVNETa5XJjSJbq5u" version="24.1.0" type="device">
  <diagram id="bsTosLUH5mfE9uCYUgKQ" name="Page-1">
    <mxGraphModel dx="2970" dy="1829" grid="1" gridSize="10" guides="1" tooltips="1" connect="1" arrows="1" fold="1" page="1" pageScale="1" pageWidth="1920" pageHeight="1200" math="0" shadow="0">
      <root>
        <mxCell id="0" />
        <mxCell id="1" parent="0" />
        <mxCell id="KMVyKCLqTtRZOJht4d2Y-1" value="" style="rounded=0;whiteSpace=wrap;html=1;fontSize=22;fillColor=#f5f5f5;fontColor=#333333;strokeColor=#666666;direction=east;strokeWidth=2;fontStyle=1" parent="1" vertex="1">
          <mxGeometry x="-1910" y="3" width="1630" height="1287" as="geometry" />
        </mxCell>
        <mxCell id="KMVyKCLqTtRZOJht4d2Y-2" value="" style="rounded=0;whiteSpace=wrap;html=1;strokeWidth=2;fontStyle=1;labelBackgroundColor=default;endArrow=classic;fontSize=12;strokeColor=default;" parent="1" vertex="1">
          <mxGeometry x="-1880" y="323" width="1580" height="270" as="geometry" />
        </mxCell>
        <mxCell id="KMVyKCLqTtRZOJht4d2Y-3" value="" style="rounded=0;whiteSpace=wrap;html=1;strokeWidth=2;fontStyle=1;" parent="1" vertex="1">
          <mxGeometry x="-1880" y="53" width="1580" height="270" as="geometry" />
        </mxCell>
        <mxCell id="KMVyKCLqTtRZOJht4d2Y-4" value="CLAIMANT/&lt;br&gt;SUBSCRIBER" style="text;html=1;align=center;verticalAlign=middle;resizable=0;points=[];autosize=1;strokeColor=none;fillColor=none;fontStyle=1;fontSize=23;strokeWidth=2;horizontal=0;" parent="1" vertex="1">
          <mxGeometry x="-1880" y="103" width="80" height="170" as="geometry" />
        </mxCell>
        <mxCell id="KMVyKCLqTtRZOJht4d2Y-104" value="" style="edgeStyle=orthogonalEdgeStyle;rounded=0;orthogonalLoop=1;jettySize=auto;html=1;strokeColor=#00CC00;strokeWidth=2;fontStyle=1;" parent="1" source="KMVyKCLqTtRZOJht4d2Y-6" target="KMVyKCLqTtRZOJht4d2Y-102" edge="1">
          <mxGeometry relative="1" as="geometry" />
        </mxCell>
        <mxCell id="KMVyKCLqTtRZOJht4d2Y-6" value="&lt;b style=&quot;font-size: 11px;&quot;&gt;START&lt;br&gt;(ONLINE)&lt;br&gt;&lt;/b&gt;" style="strokeWidth=2;html=1;shape=mxgraph.flowchart.terminator;whiteSpace=wrap;fillColor=#d5e8d4;strokeColor=#82b366;fontSize=11;" parent="1" vertex="1">
          <mxGeometry x="-1745" y="105.5" width="100" height="40" as="geometry" />
        </mxCell>
        <mxCell id="KMVyKCLqTtRZOJht4d2Y-9" value="MULTI-USER ONE-TIME PASSWORD AUTHENTICATION" style="text;html=1;align=center;verticalAlign=middle;resizable=0;points=[];autosize=1;strokeColor=none;fillColor=none;fontStyle=1;strokeWidth=2;fontSize=23;" parent="1" vertex="1">
          <mxGeometry x="-930" y="8" width="630" height="40" as="geometry" />
        </mxCell>
        <mxCell id="KMVyKCLqTtRZOJht4d2Y-10" value="AU.2" style="text;html=1;align=center;verticalAlign=middle;resizable=0;points=[];autosize=1;strokeColor=none;fillColor=none;fontStyle=1;strokeWidth=2;fontSize=23;" parent="1" vertex="1">
          <mxGeometry x="-1135.5" y="8" width="80" height="40" as="geometry" />
        </mxCell>
        <mxCell id="KMVyKCLqTtRZOJht4d2Y-11" value="C" style="ellipse;whiteSpace=wrap;html=1;aspect=fixed;strokeWidth=2;fontStyle=1;fontSize=22;direction=south;" parent="1" vertex="1">
          <mxGeometry x="-1880" y="13" width="30" height="30" as="geometry" />
        </mxCell>
        <mxCell id="KMVyKCLqTtRZOJht4d2Y-23" value="" style="rounded=0;whiteSpace=wrap;html=1;strokeWidth=2;fontStyle=1;" parent="1" vertex="1">
          <mxGeometry x="-1880" y="583" width="1580" height="220" as="geometry" />
        </mxCell>
        <mxCell id="KMVyKCLqTtRZOJht4d2Y-24" value="" style="rounded=0;whiteSpace=wrap;html=1;strokeWidth=2;fontStyle=1;" parent="1" vertex="1">
          <mxGeometry x="-1880" y="804" width="1580" height="456" as="geometry" />
        </mxCell>
        <mxCell id="KMVyKCLqTtRZOJht4d2Y-25" value="PRIVATE NETWORK&lt;br style=&quot;border-color: var(--border-color);&quot;&gt;SYSTEMS (SERVER)" style="text;html=1;align=center;verticalAlign=middle;resizable=0;points=[];autosize=1;strokeColor=none;fillColor=none;fontStyle=1;fontSize=23;strokeWidth=2;horizontal=0;" parent="1" vertex="1">
          <mxGeometry x="-1880" y="928.5" width="80" height="240" as="geometry" />
        </mxCell>
        <mxCell id="KMVyKCLqTtRZOJht4d2Y-26" value="PUBLIC &lt;br&gt;NETWORK&lt;br style=&quot;border-color: var(--border-color);&quot;&gt;SYSTEMS &lt;br&gt;(CLIENT)" style="text;html=1;align=center;verticalAlign=middle;resizable=0;points=[];autosize=1;strokeColor=none;fillColor=none;fontStyle=1;fontSize=23;strokeWidth=2;horizontal=0;" parent="1" vertex="1">
          <mxGeometry x="-1880" y="620" width="130" height="130" as="geometry" />
        </mxCell>
        <mxCell id="KMVyKCLqTtRZOJht4d2Y-27" value="VERIFIER" style="text;html=1;align=center;verticalAlign=middle;resizable=0;points=[];autosize=1;strokeColor=none;fillColor=none;fontStyle=1;fontSize=23;strokeWidth=2;horizontal=0;" parent="1" vertex="1">
          <mxGeometry x="-1880" y="380" width="50" height="120" as="geometry" />
        </mxCell>
        <mxCell id="KMVyKCLqTtRZOJht4d2Y-106" value="" style="edgeStyle=orthogonalEdgeStyle;rounded=0;orthogonalLoop=1;jettySize=auto;html=1;strokeColor=#00CC00;strokeWidth=2;fontStyle=1;" parent="1" source="KMVyKCLqTtRZOJht4d2Y-29" target="KMVyKCLqTtRZOJht4d2Y-105" edge="1">
          <mxGeometry relative="1" as="geometry" />
        </mxCell>
        <mxCell id="KMVyKCLqTtRZOJht4d2Y-29" value="&lt;b style=&quot;font-size: 11px;&quot;&gt;START&lt;br&gt;(OFFLINE)&lt;br&gt;&lt;/b&gt;" style="strokeWidth=2;html=1;shape=mxgraph.flowchart.terminator;whiteSpace=wrap;fillColor=#d5e8d4;strokeColor=#82b366;fontSize=11;" parent="1" vertex="1">
          <mxGeometry x="-1744" y="200.5" width="100" height="40" as="geometry" />
        </mxCell>
        <mxCell id="KMVyKCLqTtRZOJht4d2Y-117" value="" style="edgeStyle=orthogonalEdgeStyle;rounded=0;orthogonalLoop=1;jettySize=auto;html=1;strokeColor=#00CC00;strokeWidth=2;fontStyle=1;" parent="1" source="KMVyKCLqTtRZOJht4d2Y-102" target="KMVyKCLqTtRZOJht4d2Y-107" edge="1">
          <mxGeometry relative="1" as="geometry" />
        </mxCell>
        <mxCell id="KMVyKCLqTtRZOJht4d2Y-102" value="RECEIVE OTP ON REGISTERED EMAIL/PHONE/&lt;br&gt;MULTIUSER PHONE" style="rounded=0;whiteSpace=wrap;html=1;fontStyle=1;strokeWidth=2;fontSize=11;" parent="1" vertex="1">
          <mxGeometry x="-1585" y="95.5" width="120" height="60" as="geometry" />
        </mxCell>
        <mxCell id="KMVyKCLqTtRZOJht4d2Y-118" style="edgeStyle=orthogonalEdgeStyle;rounded=0;orthogonalLoop=1;jettySize=auto;html=1;exitX=1;exitY=0.5;exitDx=0;exitDy=0;entryX=0;entryY=0.5;entryDx=0;entryDy=0;strokeColor=#00CC00;strokeWidth=2;fontStyle=1;" parent="1" source="KMVyKCLqTtRZOJht4d2Y-105" target="KMVyKCLqTtRZOJht4d2Y-108" edge="1">
          <mxGeometry relative="1" as="geometry" />
        </mxCell>
        <mxCell id="KMVyKCLqTtRZOJht4d2Y-105" value="RECEIVE OTP ON REGISTERED EMAIL/PHONE/&lt;br&gt;MULTIUSER PHONE" style="rounded=0;whiteSpace=wrap;html=1;fontStyle=1;strokeWidth=2;fontSize=11;" parent="1" vertex="1">
          <mxGeometry x="-1585" y="190.5" width="120" height="60" as="geometry" />
        </mxCell>
        <mxCell id="KMVyKCLqTtRZOJht4d2Y-113" style="edgeStyle=orthogonalEdgeStyle;rounded=0;orthogonalLoop=1;jettySize=auto;html=1;exitX=1;exitY=0.5;exitDx=0;exitDy=0;entryX=1;entryY=0.5;entryDx=0;entryDy=0;strokeColor=#00CC00;strokeWidth=2;fontStyle=1;" parent="1" source="KMVyKCLqTtRZOJht4d2Y-107" target="KMVyKCLqTtRZOJht4d2Y-109" edge="1">
          <mxGeometry relative="1" as="geometry">
            <Array as="points">
              <mxPoint x="-1265" y="126" />
              <mxPoint x="-1265" y="393" />
            </Array>
          </mxGeometry>
        </mxCell>
        <mxCell id="KMVyKCLqTtRZOJht4d2Y-107" value="SUBMIT OTP TO VERIFIER ONLINE" style="rounded=0;whiteSpace=wrap;html=1;fontStyle=1;strokeWidth=2;fontSize=11;shape=parallelogram;perimeter=parallelogramPerimeter;fixedSize=1;" parent="1" vertex="1">
          <mxGeometry x="-1435" y="95.5" width="120" height="60" as="geometry" />
        </mxCell>
        <mxCell id="KMVyKCLqTtRZOJht4d2Y-108" value="SUBMIT OTP TO VERIFIER VERBALLY" style="rounded=0;whiteSpace=wrap;html=1;fontStyle=1;strokeWidth=2;fontSize=11;shape=parallelogram;perimeter=parallelogramPerimeter;fixedSize=1;" parent="1" vertex="1">
          <mxGeometry x="-1440" y="193" width="130" height="55" as="geometry" />
        </mxCell>
        <mxCell id="KMVyKCLqTtRZOJht4d2Y-112" style="edgeStyle=orthogonalEdgeStyle;rounded=0;orthogonalLoop=1;jettySize=auto;html=1;exitX=0.5;exitY=1;exitDx=0;exitDy=0;entryX=0.5;entryY=0;entryDx=0;entryDy=0;strokeColor=#00CC00;strokeWidth=2;fontStyle=1;" parent="1" source="KMVyKCLqTtRZOJht4d2Y-109" target="KMVyKCLqTtRZOJht4d2Y-110" edge="1">
          <mxGeometry relative="1" as="geometry" />
        </mxCell>
        <mxCell id="KMVyKCLqTtRZOJht4d2Y-109" value="RECEIVES 6-DIGIT OTP" style="rounded=0;whiteSpace=wrap;html=1;fontStyle=1;strokeWidth=2;fontSize=11;" parent="1" vertex="1">
          <mxGeometry x="-1435" y="365.5" width="120" height="55" as="geometry" />
        </mxCell>
        <mxCell id="KMVyKCLqTtRZOJht4d2Y-116" style="edgeStyle=orthogonalEdgeStyle;rounded=0;orthogonalLoop=1;jettySize=auto;html=1;exitX=0.5;exitY=1;exitDx=0;exitDy=0;entryX=0.5;entryY=0;entryDx=0;entryDy=0;strokeColor=#00CC00;strokeWidth=2;fontStyle=1;" parent="1" source="KMVyKCLqTtRZOJht4d2Y-110" target="KMVyKCLqTtRZOJht4d2Y-114" edge="1">
          <mxGeometry relative="1" as="geometry" />
        </mxCell>
        <mxCell id="KMVyKCLqTtRZOJht4d2Y-110" value="SEND THE 6-DIGIT OTP AND VERIFIER CREDENTIALS FOR AUTHENTICATION" style="rounded=0;whiteSpace=wrap;html=1;fontStyle=1;strokeWidth=2;fontSize=11;" parent="1" vertex="1">
          <mxGeometry x="-1435" y="445.5" width="120" height="77.5" as="geometry" />
        </mxCell>
        <mxCell id="KMVyKCLqTtRZOJht4d2Y-121" value="" style="edgeStyle=orthogonalEdgeStyle;rounded=0;orthogonalLoop=1;jettySize=auto;html=1;exitX=0.5;exitY=1;exitDx=0;exitDy=0;strokeColor=#00CC00;strokeWidth=2;fontStyle=1;" parent="1" source="KMVyKCLqTtRZOJht4d2Y-114" target="KMVyKCLqTtRZOJht4d2Y-119" edge="1">
          <mxGeometry x="0.0061" relative="1" as="geometry">
            <mxPoint as="offset" />
          </mxGeometry>
        </mxCell>
        <mxCell id="KMVyKCLqTtRZOJht4d2Y-114" value="MASKING &amp;amp; ENCRYPT UIN AND PASSWORD FOR AUTHENTICATION&amp;nbsp;" style="rounded=0;whiteSpace=wrap;html=1;fontStyle=1;strokeWidth=2;fontSize=11;" parent="1" vertex="1">
          <mxGeometry x="-1430" y="670" width="115" height="56" as="geometry" />
        </mxCell>
        <mxCell id="KMVyKCLqTtRZOJht4d2Y-125" value="RESET COUNTER" style="edgeStyle=orthogonalEdgeStyle;rounded=0;orthogonalLoop=1;jettySize=auto;html=1;strokeColor=#00CC00;strokeWidth=2;fontStyle=1;entryX=0;entryY=0.5;entryDx=0;entryDy=0;" parent="1" source="KMVyKCLqTtRZOJht4d2Y-119" target="KMVyKCLqTtRZOJht4d2Y-122" edge="1">
          <mxGeometry relative="1" as="geometry">
            <mxPoint x="-1220" y="965.75" as="targetPoint" />
          </mxGeometry>
        </mxCell>
        <mxCell id="DO9LpUk6_woKsqVQzGDN-1" style="edgeStyle=orthogonalEdgeStyle;rounded=0;orthogonalLoop=1;jettySize=auto;html=1;exitX=0.5;exitY=1;exitDx=0;exitDy=0;strokeColor=#FF2617;strokeWidth=2;fontStyle=1;entryX=0;entryY=0.5;entryDx=0;entryDy=0;" parent="1" source="KMVyKCLqTtRZOJht4d2Y-119" target="0fWo5HwTRQShw1fLgE6j-23" edge="1">
          <mxGeometry relative="1" as="geometry">
            <Array as="points">
              <mxPoint x="-1373" y="1111" />
            </Array>
          </mxGeometry>
        </mxCell>
        <mxCell id="KMVyKCLqTtRZOJht4d2Y-119" value="IF VERIFIER CREDENTIALS IS A MATCH&amp;nbsp;" style="rounded=0;whiteSpace=wrap;html=1;fontStyle=1;strokeWidth=2;fontSize=11;shape=rhombus;perimeter=rhombusPerimeter;" parent="1" vertex="1">
          <mxGeometry x="-1433" y="973" width="120" height="100" as="geometry" />
        </mxCell>
        <mxCell id="KMVyKCLqTtRZOJht4d2Y-120" value="AC" style="ellipse;whiteSpace=wrap;html=1;fillColor=#dae8fc;strokeColor=#6c8ebf;gradientColor=#7ea6e0;fontStyle=1" parent="1" vertex="1">
          <mxGeometry x="-1424" y="976" width="30" height="26" as="geometry" />
        </mxCell>
        <mxCell id="KMVyKCLqTtRZOJht4d2Y-136" style="edgeStyle=orthogonalEdgeStyle;rounded=0;orthogonalLoop=1;jettySize=auto;html=1;entryX=0.5;entryY=0;entryDx=0;entryDy=0;strokeColor=#FF2617;strokeWidth=2;fontStyle=1;" parent="1" source="0fWo5HwTRQShw1fLgE6j-23" target="KMVyKCLqTtRZOJht4d2Y-131" edge="1">
          <mxGeometry relative="1" as="geometry">
            <Array as="points">
              <mxPoint x="-1095" y="1090" />
              <mxPoint x="-1095" y="1090" />
            </Array>
          </mxGeometry>
        </mxCell>
        <mxCell id="KMVyKCLqTtRZOJht4d2Y-122" value="IF &lt;br&gt;6-DIGIT OTP MATCHES" style="rounded=0;whiteSpace=wrap;html=1;fontStyle=1;strokeWidth=2;fontSize=11;shape=rhombus;perimeter=rhombusPerimeter;" parent="1" vertex="1">
          <mxGeometry x="-1140" y="984.5" width="90" height="76.5" as="geometry" />
        </mxCell>
        <mxCell id="KMVyKCLqTtRZOJht4d2Y-159" style="edgeStyle=orthogonalEdgeStyle;rounded=0;orthogonalLoop=1;jettySize=auto;html=1;exitX=1;exitY=0.5;exitDx=0;exitDy=0;entryX=0.411;entryY=0.999;entryDx=0;entryDy=0;strokeColor=#00CC00;strokeWidth=2;fontStyle=1;labelBackgroundColor=default;entryPerimeter=0;" parent="1" source="TReIoS_R1faqMSMH_fIi-1" target="KMVyKCLqTtRZOJht4d2Y-146" edge="1">
          <mxGeometry relative="1" as="geometry">
            <Array as="points">
              <mxPoint x="-500" y="996" />
              <mxPoint x="-500" y="490" />
            </Array>
          </mxGeometry>
        </mxCell>
        <mxCell id="KMVyKCLqTtRZOJht4d2Y-127" value="STORE VERIFIER DETAILS AND SUCCESSFUL AUTHENTICATION TO &lt;br&gt;UIN ACCOUNT WITH ENCRYPTION AND HASHING" style="rounded=0;whiteSpace=wrap;html=1;fontSize=11;fontStyle=1;strokeWidth=2;" parent="1" vertex="1">
          <mxGeometry x="-828.75" y="954.5" width="133.75" height="136.5" as="geometry" />
        </mxCell>
        <mxCell id="KMVyKCLqTtRZOJht4d2Y-130" value="RESET RETRY &lt;br&gt;&amp;amp; RESEND &lt;br&gt;COUNTER" style="edgeStyle=orthogonalEdgeStyle;rounded=0;orthogonalLoop=1;jettySize=auto;html=1;strokeColor=#00CC00;strokeWidth=2;fontStyle=1;" parent="1" source="KMVyKCLqTtRZOJht4d2Y-128" target="KMVyKCLqTtRZOJht4d2Y-127" edge="1">
          <mxGeometry x="-0.3811" y="24" relative="1" as="geometry">
            <mxPoint x="1" as="offset" />
          </mxGeometry>
        </mxCell>
        <mxCell id="KMVyKCLqTtRZOJht4d2Y-128" value="IF &lt;br&gt;OTP &lt;br&gt;HAS NOT TIMED-&lt;br&gt;OUT" style="rounded=0;whiteSpace=wrap;html=1;fontStyle=1;strokeWidth=2;fontSize=11;shape=rhombus;perimeter=rhombusPerimeter;" parent="1" vertex="1">
          <mxGeometry x="-1010" y="984.5" width="92.25" height="78" as="geometry" />
        </mxCell>
        <mxCell id="KMVyKCLqTtRZOJht4d2Y-137" style="edgeStyle=orthogonalEdgeStyle;rounded=0;orthogonalLoop=1;jettySize=auto;html=1;strokeColor=#00CC00;strokeWidth=2;fontStyle=1;" parent="1" source="KMVyKCLqTtRZOJht4d2Y-131" target="KMVyKCLqTtRZOJht4d2Y-134" edge="1">
          <mxGeometry relative="1" as="geometry">
            <Array as="points">
              <mxPoint x="-1000" y="1183" />
              <mxPoint x="-1000" y="1143" />
            </Array>
          </mxGeometry>
        </mxCell>
        <mxCell id="KMVyKCLqTtRZOJht4d2Y-162" style="edgeStyle=orthogonalEdgeStyle;rounded=0;orthogonalLoop=1;jettySize=auto;html=1;exitX=0.5;exitY=1;exitDx=0;exitDy=0;strokeColor=#FF2617;strokeWidth=2;fontStyle=1;entryX=0;entryY=0.5;entryDx=0;entryDy=0;entryPerimeter=0;" parent="1" source="KMVyKCLqTtRZOJht4d2Y-131" target="KMVyKCLqTtRZOJht4d2Y-160" edge="1">
          <mxGeometry relative="1" as="geometry">
            <Array as="points">
              <mxPoint x="-1095" y="1220" />
              <mxPoint x="-570" y="1220" />
            </Array>
          </mxGeometry>
        </mxCell>
        <mxCell id="DO9LpUk6_woKsqVQzGDN-2" style="edgeStyle=orthogonalEdgeStyle;rounded=0;orthogonalLoop=1;jettySize=auto;html=1;exitX=0;exitY=0.5;exitDx=0;exitDy=0;entryX=0;entryY=0.5;entryDx=0;entryDy=0;strokeColor=#00CC00;strokeWidth=2;fontStyle=1;" parent="1" source="KMVyKCLqTtRZOJht4d2Y-131" target="KMVyKCLqTtRZOJht4d2Y-110" edge="1">
          <mxGeometry relative="1" as="geometry">
            <Array as="points">
              <mxPoint x="-1500" y="1182" />
              <mxPoint x="-1500" y="484" />
            </Array>
          </mxGeometry>
        </mxCell>
        <mxCell id="KMVyKCLqTtRZOJht4d2Y-131" value="&lt;font style=&quot;font-size: 12px;&quot;&gt;IF&lt;br style=&quot;border-color: var(--border-color);&quot;&gt;RETRY &lt;br&gt;COUNT&lt;br style=&quot;border-color: var(--border-color);&quot;&gt;&amp;lt;=3&lt;/font&gt;" style="rounded=0;whiteSpace=wrap;html=1;fontStyle=1;strokeWidth=2;fontSize=11;shape=rhombus;perimeter=rhombusPerimeter;" parent="1" vertex="1">
          <mxGeometry x="-1136.25" y="1150" width="82.5" height="65" as="geometry" />
        </mxCell>
        <mxCell id="KMVyKCLqTtRZOJht4d2Y-134" value="REQUEST SUBSCRIBER/ VERIFIER TO RESEND NEW OTP FOR AUTH.&lt;br&gt;--------------------------&lt;br&gt;&lt;u&gt;AU.2.A&lt;/u&gt;" style="rounded=0;whiteSpace=wrap;html=1;fontStyle=1;strokeWidth=2;fontSize=11;" parent="1" vertex="1">
          <mxGeometry x="-844" y="1110" width="146.25" height="70" as="geometry" />
        </mxCell>
        <mxCell id="KMVyKCLqTtRZOJht4d2Y-140" style="edgeStyle=orthogonalEdgeStyle;rounded=0;orthogonalLoop=1;jettySize=auto;html=1;exitX=0.5;exitY=0;exitDx=0;exitDy=0;entryX=0.5;entryY=0;entryDx=0;entryDy=0;entryPerimeter=0;strokeColor=#00CC00;strokeWidth=2;fontStyle=1;" parent="1" source="w71b6wCdbRLajgjPxW4z-3" target="KMVyKCLqTtRZOJht4d2Y-6" edge="1">
          <mxGeometry relative="1" as="geometry">
            <Array as="points">
              <mxPoint x="-1695" y="73" />
            </Array>
          </mxGeometry>
        </mxCell>
        <mxCell id="KMVyKCLqTtRZOJht4d2Y-138" value="RECEIVE EXPIRED OTP &amp;amp; RETRY REQUEST&lt;br&gt;NOTIFICATION" style="rounded=0;whiteSpace=wrap;html=1;fontStyle=1;strokeWidth=2;fontSize=11;" parent="1" vertex="1">
          <mxGeometry x="-740" y="400" width="120" height="90" as="geometry" />
        </mxCell>
        <mxCell id="KMVyKCLqTtRZOJht4d2Y-143" value="FOR ONLINE" style="edgeStyle=orthogonalEdgeStyle;rounded=0;orthogonalLoop=1;jettySize=auto;html=1;entryX=1;entryY=0.25;entryDx=0;entryDy=0;exitX=0.5;exitY=0;exitDx=0;exitDy=0;strokeColor=#00CC00;strokeWidth=2;fontStyle=1;jumpStyle=none;" parent="1" source="KMVyKCLqTtRZOJht4d2Y-141" target="KMVyKCLqTtRZOJht4d2Y-107" edge="1">
          <mxGeometry x="0.322" relative="1" as="geometry">
            <mxPoint x="-1045" y="143" as="targetPoint" />
            <mxPoint as="offset" />
            <Array as="points">
              <mxPoint x="-1025" y="112" />
            </Array>
          </mxGeometry>
        </mxCell>
        <mxCell id="0fWo5HwTRQShw1fLgE6j-22" value="FOR OFFLINE" style="edgeStyle=orthogonalEdgeStyle;rounded=0;orthogonalLoop=1;jettySize=auto;html=1;exitX=0.25;exitY=0;exitDx=0;exitDy=0;entryX=1;entryY=0.5;entryDx=0;entryDy=0;strokeColor=#00CC00;strokeWidth=2;fontStyle=1;" parent="1" source="KMVyKCLqTtRZOJht4d2Y-141" target="KMVyKCLqTtRZOJht4d2Y-108" edge="1">
          <mxGeometry x="0.1126" y="-1" relative="1" as="geometry">
            <mxPoint as="offset" />
            <Array as="points">
              <mxPoint x="-1055" y="220" />
            </Array>
          </mxGeometry>
        </mxCell>
        <mxCell id="KMVyKCLqTtRZOJht4d2Y-141" value="RECEIVE OTP AUTHENTICATION FAILURE NOTIFICATION" style="rounded=0;whiteSpace=wrap;html=1;fontStyle=1;strokeWidth=2;fontSize=11;" parent="1" vertex="1">
          <mxGeometry x="-1085" y="400" width="120" height="90" as="geometry" />
        </mxCell>
        <mxCell id="KMVyKCLqTtRZOJht4d2Y-169" style="edgeStyle=orthogonalEdgeStyle;rounded=0;orthogonalLoop=1;jettySize=auto;html=1;exitX=0.5;exitY=0;exitDx=0;exitDy=0;strokeColor=#00CC00;strokeWidth=2;fontStyle=1;" parent="1" source="w71b6wCdbRLajgjPxW4z-1" target="KMVyKCLqTtRZOJht4d2Y-165" edge="1">
          <mxGeometry relative="1" as="geometry">
            <Array as="points">
              <mxPoint x="-494" y="150" />
              <mxPoint x="-384" y="150" />
            </Array>
          </mxGeometry>
        </mxCell>
        <mxCell id="KMVyKCLqTtRZOJht4d2Y-146" value="RECEIVE OTP AUTHENTICATION SUCCESSFUL NOTIFICATION" style="rounded=0;whiteSpace=wrap;html=1;fontStyle=1;strokeWidth=2;fontSize=11;" parent="1" vertex="1">
          <mxGeometry x="-549" y="400" width="120" height="90" as="geometry" />
        </mxCell>
        <mxCell id="KMVyKCLqTtRZOJht4d2Y-148" value="KM" style="ellipse;whiteSpace=wrap;html=1;fillColor=#dae8fc;strokeColor=#6c8ebf;gradientColor=#7ea6e0;fontStyle=1" parent="1" vertex="1">
          <mxGeometry x="-858.75" y="950" width="30" height="26" as="geometry" />
        </mxCell>
        <mxCell id="KMVyKCLqTtRZOJht4d2Y-149" value="HSM" style="ellipse;whiteSpace=wrap;html=1;fillColor=#dae8fc;strokeColor=#6c8ebf;gradientColor=#7ea6e0;fontStyle=1" parent="1" vertex="1">
          <mxGeometry x="-858.75" y="1062.5" width="30" height="26" as="geometry" />
        </mxCell>
        <mxCell id="KMVyKCLqTtRZOJht4d2Y-150" value="IDA" style="ellipse;whiteSpace=wrap;html=1;fillColor=#dae8fc;strokeColor=#6c8ebf;gradientColor=#7ea6e0;fontStyle=1" parent="1" vertex="1">
          <mxGeometry x="-828.75" y="928.5" width="30" height="26" as="geometry" />
        </mxCell>
        <mxCell id="KMVyKCLqTtRZOJht4d2Y-168" style="edgeStyle=orthogonalEdgeStyle;rounded=0;orthogonalLoop=1;jettySize=auto;html=1;exitX=0.5;exitY=0;exitDx=0;exitDy=0;exitPerimeter=0;entryX=0;entryY=0.5;entryDx=0;entryDy=0;entryPerimeter=0;strokeColor=#00CC00;strokeWidth=2;fontStyle=1;" parent="1" source="KMVyKCLqTtRZOJht4d2Y-160" target="KMVyKCLqTtRZOJht4d2Y-165" edge="1">
          <mxGeometry relative="1" as="geometry">
            <Array as="points">
              <mxPoint x="-460" y="986" />
            </Array>
          </mxGeometry>
        </mxCell>
        <mxCell id="KMVyKCLqTtRZOJht4d2Y-160" value="&lt;span style=&quot;border-color: var(--border-color);&quot;&gt;&lt;b&gt;TERMINATE PROCESS:&lt;br&gt;&lt;/b&gt;LOCK UIN ACCOUNT FOR 24 HOURS&lt;br&gt;&lt;/span&gt;" style="strokeWidth=2;html=1;shape=mxgraph.flowchart.terminator;whiteSpace=wrap;fillColor=#f8cecc;strokeColor=#b85450;" parent="1" vertex="1">
          <mxGeometry x="-570" y="1196" width="220" height="49" as="geometry" />
        </mxCell>
        <mxCell id="KMVyKCLqTtRZOJht4d2Y-161" value="KR" style="ellipse;whiteSpace=wrap;html=1;fillColor=#dae8fc;strokeColor=#6c8ebf;gradientColor=#7ea6e0;fontStyle=1" parent="1" vertex="1">
          <mxGeometry x="-560" y="1180" width="30" height="26" as="geometry" />
        </mxCell>
        <mxCell id="KMVyKCLqTtRZOJht4d2Y-164" value="" style="edgeStyle=orthogonalEdgeStyle;rounded=0;orthogonalLoop=1;jettySize=auto;html=1;strokeColor=#00CC00;fontStyle=1;strokeWidth=2;" parent="1" source="KMVyKCLqTtRZOJht4d2Y-165" target="KMVyKCLqTtRZOJht4d2Y-166" edge="1">
          <mxGeometry relative="1" as="geometry" />
        </mxCell>
        <mxCell id="KMVyKCLqTtRZOJht4d2Y-165" value="LOGS THE PROCESS AND STATUS" style="rounded=0;whiteSpace=wrap;html=1;fontStyle=1;strokeWidth=2;" parent="1" vertex="1">
          <mxGeometry x="-444" y="950" width="120" height="72" as="geometry" />
        </mxCell>
        <mxCell id="KMVyKCLqTtRZOJht4d2Y-166" value="&lt;b&gt;END&lt;/b&gt;" style="strokeWidth=2;html=1;shape=mxgraph.flowchart.terminator;whiteSpace=wrap;fillColor=#f8cecc;strokeColor=#b85450;" parent="1" vertex="1">
          <mxGeometry x="-434" y="1051" width="100" height="40" as="geometry" />
        </mxCell>
        <mxCell id="KMVyKCLqTtRZOJht4d2Y-167" value="IDA" style="ellipse;whiteSpace=wrap;html=1;fillColor=#dae8fc;strokeColor=#6c8ebf;gradientColor=#7ea6e0;fontStyle=1" parent="1" vertex="1">
          <mxGeometry x="-444" y="924" width="30" height="26" as="geometry" />
        </mxCell>
        <mxCell id="KMVyKCLqTtRZOJht4d2Y-111" style="edgeStyle=orthogonalEdgeStyle;rounded=0;orthogonalLoop=1;jettySize=auto;html=1;entryX=0.5;entryY=0;entryDx=0;entryDy=0;strokeColor=#00CC00;strokeWidth=2;fontStyle=1;" parent="1" source="KMVyKCLqTtRZOJht4d2Y-108" target="KMVyKCLqTtRZOJht4d2Y-109" edge="1">
          <mxGeometry relative="1" as="geometry" />
        </mxCell>
        <mxCell id="0fWo5HwTRQShw1fLgE6j-1" value="" style="edgeStyle=orthogonalEdgeStyle;rounded=0;orthogonalLoop=1;jettySize=auto;html=1;exitX=0.5;exitY=0;exitDx=0;exitDy=0;entryX=0.5;entryY=1;entryDx=0;entryDy=0;strokeColor=#00CC00;strokeWidth=2;fontStyle=1;" parent="1" source="KMVyKCLqTtRZOJht4d2Y-138" target="w71b6wCdbRLajgjPxW4z-3" edge="1">
          <mxGeometry relative="1" as="geometry">
            <Array as="points">
              <mxPoint x="-680" y="400" />
              <mxPoint x="-680" y="236" />
            </Array>
            <mxPoint x="-674" y="405" as="sourcePoint" />
            <mxPoint x="-1695" y="106" as="targetPoint" />
          </mxGeometry>
        </mxCell>
        <mxCell id="w71b6wCdbRLajgjPxW4z-3" value="RECEIVE EXPIRED OTP &amp;amp; RETRY REQUEST&lt;br style=&quot;border-color: var(--border-color);&quot;&gt;NOTIFICATION" style="rounded=0;whiteSpace=wrap;html=1;fontStyle=1;strokeWidth=2;fontSize=11;fillColor=default;strokeColor=default;" parent="1" vertex="1">
          <mxGeometry x="-740" y="164" width="120" height="65.5" as="geometry" />
        </mxCell>
        <mxCell id="0fWo5HwTRQShw1fLgE6j-2" value="" style="edgeStyle=orthogonalEdgeStyle;rounded=0;orthogonalLoop=1;jettySize=auto;html=1;exitX=0.5;exitY=0;exitDx=0;exitDy=0;strokeColor=#00CC00;strokeWidth=2;fontStyle=1;entryX=0.5;entryY=1;entryDx=0;entryDy=0;" parent="1" source="KMVyKCLqTtRZOJht4d2Y-146" target="w71b6wCdbRLajgjPxW4z-1" edge="1">
          <mxGeometry relative="1" as="geometry">
            <Array as="points" />
            <mxPoint x="-494" y="405" as="sourcePoint" />
            <mxPoint x="-384" y="850" as="targetPoint" />
          </mxGeometry>
        </mxCell>
        <mxCell id="w71b6wCdbRLajgjPxW4z-1" value="RECEIVE OTP AUTHENTICATION SUCCESSFUL NOTIFICATION" style="rounded=0;whiteSpace=wrap;html=1;fontStyle=1;strokeWidth=2;fontSize=11;fillColor=default;strokeColor=default;" parent="1" vertex="1">
          <mxGeometry x="-549" y="170" width="120" height="65.5" as="geometry" />
        </mxCell>
        <mxCell id="0fWo5HwTRQShw1fLgE6j-4" value="" style="edgeStyle=orthogonalEdgeStyle;rounded=0;orthogonalLoop=1;jettySize=auto;html=1;exitX=1;exitY=0.5;exitDx=0;exitDy=0;entryX=0.5;entryY=1;entryDx=0;entryDy=0;strokeColor=#00CC00;strokeWidth=2;fontStyle=1;" parent="1" source="KMVyKCLqTtRZOJht4d2Y-131" target="KMVyKCLqTtRZOJht4d2Y-141" edge="1">
          <mxGeometry x="-0.8579" y="-15" relative="1" as="geometry">
            <Array as="points">
              <mxPoint x="-1025" y="1183" />
            </Array>
            <mxPoint x="-1040" y="1082" as="sourcePoint" />
            <mxPoint x="-1025" y="490" as="targetPoint" />
            <mxPoint as="offset" />
          </mxGeometry>
        </mxCell>
        <mxCell id="0fWo5HwTRQShw1fLgE6j-7" value="&lt;font style=&quot;font-size: 14px;&quot;&gt;PUBLIC NETWORK&lt;/font&gt;" style="swimlane;whiteSpace=wrap;html=1;" parent="1" vertex="1">
          <mxGeometry x="-280" y="613" width="200" height="167" as="geometry" />
        </mxCell>
        <mxCell id="0fWo5HwTRQShw1fLgE6j-13" value="DNS SERVERS" style="text;html=1;strokeColor=none;fillColor=none;align=center;verticalAlign=middle;whiteSpace=wrap;rounded=0;fontSize=14;" parent="0fWo5HwTRQShw1fLgE6j-7" vertex="1">
          <mxGeometry y="27" width="200" height="28" as="geometry" />
        </mxCell>
        <mxCell id="0fWo5HwTRQShw1fLgE6j-18" value="FTP SERVERS" style="text;html=1;strokeColor=none;fillColor=none;align=center;verticalAlign=middle;whiteSpace=wrap;rounded=0;fontSize=14;" parent="0fWo5HwTRQShw1fLgE6j-7" vertex="1">
          <mxGeometry y="55" width="200" height="28" as="geometry" />
        </mxCell>
        <mxCell id="0fWo5HwTRQShw1fLgE6j-19" value="MAIL SERVERS" style="text;html=1;strokeColor=none;fillColor=none;align=center;verticalAlign=middle;whiteSpace=wrap;rounded=0;fontSize=14;" parent="0fWo5HwTRQShw1fLgE6j-7" vertex="1">
          <mxGeometry y="83" width="200" height="28" as="geometry" />
        </mxCell>
        <mxCell id="0fWo5HwTRQShw1fLgE6j-20" value="PROXY SERVERS" style="text;html=1;strokeColor=none;fillColor=none;align=center;verticalAlign=middle;whiteSpace=wrap;rounded=0;fontSize=14;" parent="0fWo5HwTRQShw1fLgE6j-7" vertex="1">
          <mxGeometry y="111" width="200" height="28" as="geometry" />
        </mxCell>
        <mxCell id="0fWo5HwTRQShw1fLgE6j-21" value="WEB SERVERS" style="text;html=1;strokeColor=none;fillColor=none;align=center;verticalAlign=middle;whiteSpace=wrap;rounded=0;fontSize=14;" parent="0fWo5HwTRQShw1fLgE6j-7" vertex="1">
          <mxGeometry y="139" width="200" height="28" as="geometry" />
        </mxCell>
        <mxCell id="0fWo5HwTRQShw1fLgE6j-24" value="" style="edgeStyle=orthogonalEdgeStyle;rounded=0;orthogonalLoop=1;jettySize=auto;html=1;exitX=1;exitY=0.25;exitDx=0;exitDy=0;strokeColor=#00CC00;strokeWidth=2;fontStyle=1;entryX=0.5;entryY=1;entryDx=0;entryDy=0;" parent="1" source="KMVyKCLqTtRZOJht4d2Y-134" target="KMVyKCLqTtRZOJht4d2Y-138" edge="1">
          <mxGeometry relative="1" as="geometry">
            <mxPoint x="-698" y="1082" as="sourcePoint" />
            <mxPoint x="-674" y="495" as="targetPoint" />
            <Array as="points">
              <mxPoint x="-680" y="1127" />
            </Array>
          </mxGeometry>
        </mxCell>
        <mxCell id="GgSDDa10MVGaCv05pXs7-5" value="KM" style="ellipse;whiteSpace=wrap;html=1;fillColor=#dae8fc;strokeColor=#6c8ebf;gradientColor=#7ea6e0;fontStyle=1" parent="1" vertex="1">
          <mxGeometry x="-1460" y="659" width="30" height="26" as="geometry" />
        </mxCell>
        <mxCell id="GgSDDa10MVGaCv05pXs7-6" value="HSM" style="ellipse;whiteSpace=wrap;html=1;fillColor=#dae8fc;strokeColor=#6c8ebf;gradientColor=#7ea6e0;fontStyle=1" parent="1" vertex="1">
          <mxGeometry x="-1460" y="685" width="30" height="26" as="geometry" />
        </mxCell>
        <mxCell id="GgSDDa10MVGaCv05pXs7-7" value="CA" style="ellipse;whiteSpace=wrap;html=1;fillColor=#dae8fc;strokeColor=#6c8ebf;gradientColor=#7ea6e0;fontStyle=1" parent="1" vertex="1">
          <mxGeometry x="-1460" y="711" width="30" height="26" as="geometry" />
        </mxCell>
        <mxCell id="GgSDDa10MVGaCv05pXs7-8" value="USER" style="shape=umlActor;verticalLabelPosition=bottom;verticalAlign=top;html=1;outlineConnect=0;fontStyle=1" parent="1" vertex="1">
          <mxGeometry x="-1800" y="140.5" width="30" height="60" as="geometry" />
        </mxCell>
        <mxCell id="GgSDDa10MVGaCv05pXs7-9" value="VERIFIER" style="shape=umlActor;verticalLabelPosition=bottom;verticalAlign=top;html=1;outlineConnect=0;fontStyle=1" parent="1" vertex="1">
          <mxGeometry x="-1800" y="400" width="30" height="60" as="geometry" />
        </mxCell>
        <mxCell id="GgSDDa10MVGaCv05pXs7-10" value="&lt;font style=&quot;font-size: 14px;&quot;&gt;LEGEND&lt;/font&gt;" style="swimlane;whiteSpace=wrap;html=1;" parent="1" vertex="1">
          <mxGeometry x="-280" y="3" width="200" height="230" as="geometry" />
        </mxCell>
        <mxCell id="GgSDDa10MVGaCv05pXs7-11" value="KM" style="ellipse;whiteSpace=wrap;html=1;fillColor=#dae8fc;strokeColor=#6c8ebf;gradientColor=#7ea6e0;fontStyle=1" parent="GgSDDa10MVGaCv05pXs7-10" vertex="1">
          <mxGeometry x="10" y="30" width="30" height="26" as="geometry" />
        </mxCell>
        <mxCell id="GgSDDa10MVGaCv05pXs7-12" value="IDA" style="ellipse;whiteSpace=wrap;html=1;fillColor=#dae8fc;strokeColor=#6c8ebf;gradientColor=#7ea6e0;fontStyle=1" parent="GgSDDa10MVGaCv05pXs7-10" vertex="1">
          <mxGeometry x="10" y="131" width="30" height="26" as="geometry" />
        </mxCell>
        <mxCell id="GgSDDa10MVGaCv05pXs7-13" value="HSM" style="ellipse;whiteSpace=wrap;html=1;fillColor=#dae8fc;strokeColor=#6c8ebf;gradientColor=#7ea6e0;fontStyle=1" parent="GgSDDa10MVGaCv05pXs7-10" vertex="1">
          <mxGeometry x="10" y="91" width="30" height="26" as="geometry" />
        </mxCell>
        <mxCell id="GgSDDa10MVGaCv05pXs7-14" value="KR" style="ellipse;whiteSpace=wrap;html=1;fillColor=#dae8fc;strokeColor=#6c8ebf;gradientColor=#7ea6e0;fontStyle=1" parent="GgSDDa10MVGaCv05pXs7-10" vertex="1">
          <mxGeometry x="10" y="59" width="30" height="26" as="geometry" />
        </mxCell>
        <mxCell id="GgSDDa10MVGaCv05pXs7-15" value="Key Manager" style="text;html=1;strokeColor=none;fillColor=none;align=center;verticalAlign=middle;whiteSpace=wrap;rounded=0;fontSize=14;" parent="GgSDDa10MVGaCv05pXs7-10" vertex="1">
          <mxGeometry x="40" y="30" width="160" height="28" as="geometry" />
        </mxCell>
        <mxCell id="GgSDDa10MVGaCv05pXs7-16" value="Key Revocation" style="text;html=1;strokeColor=none;fillColor=none;align=center;verticalAlign=middle;whiteSpace=wrap;rounded=0;fontSize=14;" parent="GgSDDa10MVGaCv05pXs7-10" vertex="1">
          <mxGeometry x="40" y="58" width="160" height="28" as="geometry" />
        </mxCell>
        <mxCell id="GgSDDa10MVGaCv05pXs7-17" value="Hardware Security Module" style="text;html=1;strokeColor=none;fillColor=none;align=center;verticalAlign=middle;whiteSpace=wrap;rounded=0;fontSize=14;" parent="GgSDDa10MVGaCv05pXs7-10" vertex="1">
          <mxGeometry x="40" y="90" width="160" height="28" as="geometry" />
        </mxCell>
        <mxCell id="GgSDDa10MVGaCv05pXs7-18" value="ID Authentication (DB)" style="text;html=1;strokeColor=none;fillColor=none;align=center;verticalAlign=middle;whiteSpace=wrap;rounded=0;fontSize=14;" parent="GgSDDa10MVGaCv05pXs7-10" vertex="1">
          <mxGeometry x="40" y="130" width="160" height="28" as="geometry" />
        </mxCell>
        <mxCell id="GgSDDa10MVGaCv05pXs7-19" value="AC" style="ellipse;whiteSpace=wrap;html=1;fillColor=#dae8fc;strokeColor=#6c8ebf;gradientColor=#7ea6e0;fontStyle=1" parent="GgSDDa10MVGaCv05pXs7-10" vertex="1">
          <mxGeometry x="10" y="161" width="30" height="26" as="geometry" />
        </mxCell>
        <mxCell id="GgSDDa10MVGaCv05pXs7-20" value="Access Control" style="text;html=1;strokeColor=none;fillColor=none;align=center;verticalAlign=middle;whiteSpace=wrap;rounded=0;fontSize=14;" parent="GgSDDa10MVGaCv05pXs7-10" vertex="1">
          <mxGeometry x="40" y="160" width="160" height="28" as="geometry" />
        </mxCell>
        <mxCell id="GgSDDa10MVGaCv05pXs7-21" value="Certificate Authority" style="text;html=1;strokeColor=none;fillColor=none;align=center;verticalAlign=middle;whiteSpace=wrap;rounded=0;fontSize=14;" parent="GgSDDa10MVGaCv05pXs7-10" vertex="1">
          <mxGeometry x="40" y="190" width="160" height="28" as="geometry" />
        </mxCell>
        <mxCell id="GgSDDa10MVGaCv05pXs7-22" value="CA" style="ellipse;whiteSpace=wrap;html=1;fillColor=#dae8fc;strokeColor=#6c8ebf;gradientColor=#7ea6e0;fontStyle=1" parent="GgSDDa10MVGaCv05pXs7-10" vertex="1">
          <mxGeometry x="10" y="191" width="30" height="26" as="geometry" />
        </mxCell>
        <mxCell id="TReIoS_R1faqMSMH_fIi-1" value="MEMORABLE SECRET AUTH.&lt;br&gt;--------------------------&lt;br&gt;&lt;u&gt;AU.1.D&lt;/u&gt;" style="rounded=0;whiteSpace=wrap;html=1;fontStyle=1;strokeWidth=2;fontSize=11;fillColor=default;strokeColor=default;fontColor=default;" parent="1" vertex="1">
          <mxGeometry x="-620" y="965.75" width="114" height="62" as="geometry" />
        </mxCell>
        <mxCell id="92BzT6mU0R0-pPFVYe31-1" style="edgeStyle=orthogonalEdgeStyle;rounded=0;orthogonalLoop=1;jettySize=auto;html=1;exitX=0;exitY=0.25;exitDx=0;exitDy=0;entryX=0.5;entryY=0;entryDx=0;entryDy=0;entryPerimeter=0;strokeColor=#00CC00;strokeWidth=2;fontStyle=1;jumpStyle=arc;jumpSize=11;" parent="1" source="w71b6wCdbRLajgjPxW4z-3" target="KMVyKCLqTtRZOJht4d2Y-29" edge="1">
          <mxGeometry relative="1" as="geometry" />
        </mxCell>
        <mxCell id="lIJImCJlT6zQ5nGGnkvA-1" style="edgeStyle=orthogonalEdgeStyle;rounded=0;orthogonalLoop=1;jettySize=auto;html=1;exitX=0.5;exitY=1;exitDx=0;exitDy=0;exitPerimeter=0;entryX=0.5;entryY=0;entryDx=0;entryDy=0;strokeColor=#9673a6;strokeWidth=2;fontStyle=1;fillColor=#e1d5e7;" parent="1" source="92BzT6mU0R0-pPFVYe31-2" target="KMVyKCLqTtRZOJht4d2Y-128" edge="1">
          <mxGeometry relative="1" as="geometry" />
        </mxCell>
        <mxCell id="92BzT6mU0R0-pPFVYe31-2" value="&lt;b style=&quot;font-size: 11px;&quot;&gt;CONTINUE: 2FA AUTH&lt;br&gt;&lt;/b&gt;" style="strokeWidth=2;html=1;shape=mxgraph.flowchart.terminator;whiteSpace=wrap;fillColor=#e1d5e7;strokeColor=#9673a6;fontSize=11;" parent="1" vertex="1">
          <mxGeometry x="-1013.87" y="898" width="100" height="40" as="geometry" />
        </mxCell>
        <mxCell id="KMVyKCLqTtRZOJht4d2Y-66" value="FIREWALL" style="shape=label;whiteSpace=wrap;html=1;boundedLbl=1;backgroundOutline=1;darkOpacity=0.05;darkOpacity2=0.1;fillColor=#e51400;fontColor=#ffffff;strokeColor=#B20000;rounded=0;fontStyle=1" parent="1" vertex="1">
          <mxGeometry x="-1880" y="313" width="1580" height="20" as="geometry" />
        </mxCell>
        <mxCell id="w71b6wCdbRLajgjPxW4z-4" value="API/ HTTPS (SSL/TLS)" style="shape=label;whiteSpace=wrap;html=1;boundedLbl=1;backgroundOutline=1;darkOpacity=0.05;darkOpacity2=0.1;fillColor=#f8cecc;strokeColor=#b85450;rounded=0;fontStyle=1" parent="1" vertex="1">
          <mxGeometry x="-1880" y="293" width="1580" height="20" as="geometry" />
        </mxCell>
        <mxCell id="DO9LpUk6_woKsqVQzGDN-3" value="NOTIFICATION GENERATOR" style="rounded=0;whiteSpace=wrap;html=1;fontStyle=1;strokeWidth=2;fontSize=11;fillColor=default;strokeColor=default;" parent="1" vertex="1">
          <mxGeometry x="-1585" y="840" width="205" height="27" as="geometry" />
        </mxCell>
        <mxCell id="DO9LpUk6_woKsqVQzGDN-4" value="AC" style="ellipse;whiteSpace=wrap;html=1;fillColor=#dae8fc;strokeColor=#6c8ebf;gradientColor=#7ea6e0;fontStyle=1" parent="1" vertex="1">
          <mxGeometry x="-1145" y="984.5" width="30" height="26" as="geometry" />
        </mxCell>
        <mxCell id="DO9LpUk6_woKsqVQzGDN-7" value="KM" style="ellipse;whiteSpace=wrap;html=1;fillColor=#dae8fc;strokeColor=#6c8ebf;gradientColor=#7ea6e0;fontStyle=1" parent="1" vertex="1">
          <mxGeometry x="-1145" y="1035" width="30" height="26" as="geometry" />
        </mxCell>
        <mxCell id="dTQGfoWOA7fyOPIcpF8G-1" value="" style="edgeStyle=orthogonalEdgeStyle;rounded=0;orthogonalLoop=1;jettySize=auto;html=1;entryX=0.5;entryY=0;entryDx=0;entryDy=0;strokeColor=#FF2617;strokeWidth=2;fontStyle=1;" parent="1" source="KMVyKCLqTtRZOJht4d2Y-122" target="0fWo5HwTRQShw1fLgE6j-23" edge="1">
          <mxGeometry relative="1" as="geometry">
            <Array as="points" />
            <mxPoint x="-1095" y="1061" as="sourcePoint" />
            <mxPoint x="-1095" y="1150" as="targetPoint" />
          </mxGeometry>
        </mxCell>
        <mxCell id="0fWo5HwTRQShw1fLgE6j-23" value="EXCEPTION AND ERROR HANDLING (COUNTER)" style="rounded=0;whiteSpace=wrap;html=1;fontStyle=1;strokeWidth=2;fontSize=11;shape=label;boundedLbl=1;backgroundOutline=1;size=9.769240159254764;" parent="1" vertex="1">
          <mxGeometry x="-1160" y="1090" width="129" height="42" as="geometry" />
        </mxCell>
        <mxCell id="KMVyKCLqTtRZOJht4d2Y-129" value="" style="edgeStyle=orthogonalEdgeStyle;rounded=0;orthogonalLoop=1;jettySize=auto;html=1;strokeColor=#00CC00;strokeWidth=2;fontStyle=1;jumpStyle=arc;jumpSize=11;" parent="1" source="KMVyKCLqTtRZOJht4d2Y-122" target="KMVyKCLqTtRZOJht4d2Y-128" edge="1">
          <mxGeometry relative="1" as="geometry" />
        </mxCell>
        <mxCell id="KMVyKCLqTtRZOJht4d2Y-133" style="edgeStyle=orthogonalEdgeStyle;rounded=0;orthogonalLoop=1;jettySize=auto;html=1;exitX=0.5;exitY=1;exitDx=0;exitDy=0;entryX=0.812;entryY=-0.034;entryDx=0;entryDy=0;strokeColor=#FF2617;strokeWidth=2;fontStyle=1;entryPerimeter=0;jumpStyle=arc;jumpSize=11;" parent="1" source="KMVyKCLqTtRZOJht4d2Y-128" target="0fWo5HwTRQShw1fLgE6j-23" edge="1">
          <mxGeometry relative="1" as="geometry">
            <Array as="points">
              <mxPoint x="-964" y="1070" />
              <mxPoint x="-1055" y="1070" />
            </Array>
          </mxGeometry>
        </mxCell>
        <mxCell id="TReIoS_R1faqMSMH_fIi-3" value="" style="edgeStyle=orthogonalEdgeStyle;rounded=0;orthogonalLoop=1;jettySize=auto;html=1;exitX=1;exitY=0;exitDx=0;exitDy=41.625;exitPerimeter=0;entryX=0;entryY=0.5;entryDx=0;entryDy=0;strokeColor=#00CC00;strokeWidth=2;fontStyle=1;labelBackgroundColor=default;jumpStyle=arc;jumpSize=11;" parent="1" source="KMVyKCLqTtRZOJht4d2Y-127" target="TReIoS_R1faqMSMH_fIi-1" edge="1">
          <mxGeometry x="0.2701" y="6" relative="1" as="geometry">
            <mxPoint as="offset" />
          </mxGeometry>
        </mxCell>
        <mxCell id="TReIoS_R1faqMSMH_fIi-4" value="" style="edgeStyle=orthogonalEdgeStyle;rounded=0;orthogonalLoop=1;jettySize=auto;html=1;exitX=1;exitY=0;exitDx=0;exitDy=94.875;exitPerimeter=0;entryX=0.574;entryY=1;entryDx=0;entryDy=0;strokeColor=#00CC00;strokeWidth=2;fontStyle=1;entryPerimeter=0;jumpStyle=arc;jumpSize=11;" parent="1" source="KMVyKCLqTtRZOJht4d2Y-127" target="KMVyKCLqTtRZOJht4d2Y-146" edge="1">
          <mxGeometry x="-0.8464" y="10" relative="1" as="geometry">
            <Array as="points">
              <mxPoint x="-480" y="1050" />
              <mxPoint x="-480" y="490" />
            </Array>
            <mxPoint as="offset" />
          </mxGeometry>
        </mxCell>
        <mxCell id="w71b6wCdbRLajgjPxW4z-2" value="NOTIFICATION GENERATOR" style="rounded=0;whiteSpace=wrap;html=1;fontStyle=1;strokeWidth=2;fontSize=11;fillColor=default;strokeColor=default;" parent="1" vertex="1">
          <mxGeometry x="-1100" y="840" width="650" height="27" as="geometry" />
        </mxCell>
        <mxCell id="GgSDDa10MVGaCv05pXs7-1" value="API/ HTTPS (SSL/TLS)" style="shape=label;whiteSpace=wrap;html=1;boundedLbl=1;backgroundOutline=1;darkOpacity=0.05;darkOpacity2=0.1;fillColor=#f8cecc;strokeColor=#b85450;rounded=0;fontStyle=1" parent="1" vertex="1">
          <mxGeometry x="-1880" y="763" width="1577.5" height="20" as="geometry" />
        </mxCell>
        <mxCell id="KMVyKCLqTtRZOJht4d2Y-95" value="" style="group" parent="1" vertex="1" connectable="0">
          <mxGeometry x="-1880" y="783" width="1580" height="40" as="geometry" />
        </mxCell>
        <mxCell id="KMVyKCLqTtRZOJht4d2Y-97" value="IDS, IPS, HONEYPOT" style="shape=label;whiteSpace=wrap;html=1;boundedLbl=1;backgroundOutline=1;darkOpacity=0.05;darkOpacity2=0.1;fillColor=#f0a30a;strokeColor=#BD7000;rounded=0;fontColor=#000000;fontSize=12;fontStyle=1" parent="KMVyKCLqTtRZOJht4d2Y-95" vertex="1">
          <mxGeometry y="20" width="1580" height="20" as="geometry" />
        </mxCell>
        <mxCell id="KMVyKCLqTtRZOJht4d2Y-96" value="SINGLE/ DUAL FIREWALL" style="shape=label;whiteSpace=wrap;html=1;boundedLbl=1;backgroundOutline=1;darkOpacity=0.05;darkOpacity2=0.1;fillColor=#e51400;fontColor=#ffffff;strokeColor=#B20000;rounded=0;fontStyle=1" parent="KMVyKCLqTtRZOJht4d2Y-95" vertex="1">
          <mxGeometry width="1580" height="20" as="geometry" />
        </mxCell>
        <mxCell id="KMVyKCLqTtRZOJht4d2Y-98" value="" style="group" parent="1" vertex="1" connectable="0">
          <mxGeometry x="-1880" y="573" width="1580" height="40" as="geometry" />
        </mxCell>
        <mxCell id="KMVyKCLqTtRZOJht4d2Y-99" value="IDS, IPS, HONEYPOT" style="shape=label;whiteSpace=wrap;html=1;boundedLbl=1;backgroundOutline=1;darkOpacity=0.05;darkOpacity2=0.1;fillColor=#f0a30a;strokeColor=#BD7000;rounded=0;fontColor=#000000;fontSize=12;fontStyle=1" parent="KMVyKCLqTtRZOJht4d2Y-98" vertex="1">
          <mxGeometry y="20" width="1579.9999999999998" height="20" as="geometry" />
        </mxCell>
        <mxCell id="KMVyKCLqTtRZOJht4d2Y-100" value="SINGLE/ DUAL FIREWALL" style="shape=label;whiteSpace=wrap;html=1;boundedLbl=1;backgroundOutline=1;darkOpacity=0.05;darkOpacity2=0.1;fillColor=#e51400;fontColor=#ffffff;strokeColor=#B20000;rounded=0;fontStyle=1" parent="KMVyKCLqTtRZOJht4d2Y-98" vertex="1">
          <mxGeometry width="1579.9999999999998" height="20" as="geometry" />
        </mxCell>
        <mxCell id="w71b6wCdbRLajgjPxW4z-5" value="API/ HTTPS (SSL/TLS)" style="shape=label;whiteSpace=wrap;html=1;boundedLbl=1;backgroundOutline=1;darkOpacity=0.05;darkOpacity2=0.1;fillColor=#f8cecc;strokeColor=#b85450;rounded=0;fontStyle=1" parent="1" vertex="1">
          <mxGeometry x="-1880" y="553" width="1580" height="20" as="geometry" />
        </mxCell>
        <mxCell id="AM0ix7IT9l8ViFse5AAF-1" value="&lt;div style=&quot;font-size: 18px;&quot;&gt;&lt;font style=&quot;font-size: 18px;&quot;&gt;&lt;b style=&quot;font-size: 18px;&quot;&gt;Purpose:&lt;/b&gt;&lt;/font&gt;&lt;/div&gt;&lt;div style=&quot;font-size: 18px;&quot;&gt;This SOP g&lt;span style=&quot;background-color: rgb(255, 255, 255); color: rgb(13, 13, 13); font-size: 18px; white-space-collapse: preserve;&quot;&gt;uides the authentication process using multi-user one-time passwords.&lt;/span&gt;&lt;br style=&quot;font-size: 18px;&quot;&gt;&lt;/div&gt;" style="whiteSpace=wrap;html=1;align=left;rounded=0;strokeWidth=2;verticalAlign=middle;fontFamily=Helvetica;fontSize=18;fontStyle=0;" vertex="1" parent="1">
          <mxGeometry x="-1910" y="-57" width="1630" height="60" as="geometry" />
        </mxCell>
      </root>
    </mxGraphModel>
  </diagram>
</mxfile>
